<?xml version="1.0" encoding="utf-8"?>
<!-- Generator: Adobe Illustrator 26.0.2, SVG Export Plug-In . SVG Version: 6.00 Build 0)  -->
<svg version="1.1" id="Layer_1" xmlns="http://www.w3.org/2000/svg" xmlns:xlink="http://www.w3.org/1999/xlink" x="0px" y="0px"
	 viewBox="0 0 887 200" style="enable-background:new 0 0 887 200;" xml:space="preserve">
<style type="text/css">
	.st0{display:none;}
	.st1{fill:#FFFFFF;}
</style>
<rect x="-95" y="-42.5" class="st0" width="1074" height="295"/>
<g>
	<g>
		<path class="st1" d="M191.4,106.1l5.7,1.6l-1.6,3.5h-17.7v-3l4.8-4V97l-13.7-22.8l-3.7-2l1-3.5h17.4v3l-3.8,3.1l9.1,15.1l9.1-14
			l-7.4-3.8l1.6-3.5h16.4v3l-5,3.9l-12.1,18.8V106.1z"/>
		<path class="st1" d="M228,83.3c2,1.2,3.5,3,4.6,5.1c1.1,2.2,1.7,4.6,1.7,7.2c0,2.9-0.9,5.5-2.6,8c-1.7,2.5-3.9,4.4-6.5,5.9
			c-2.6,1.5-5.1,2.2-7.5,2.2c-2.5,0-4.7-0.6-6.7-1.9c-2-1.2-3.5-3-4.6-5.1c-1.1-2.2-1.7-4.6-1.7-7.2c0-2.9,0.9-5.5,2.6-8
			c1.7-2.5,3.9-4.4,6.5-5.9c2.6-1.5,5.1-2.2,7.5-2.2C223.8,81.4,226.1,82,228,83.3z M215.1,89.5c-0.7,1.2-1.1,3-1.1,5.4
			c0,3,0.6,5.6,1.7,7.6c1.2,2,2.8,3,4.9,3c1.4,0,2.5-0.6,3.2-1.9c0.7-1.2,1.1-3.1,1.1-5.4c0-3-0.6-5.5-1.7-7.5c-1.2-2-2.8-3-4.8-3
			C216.9,87.7,215.8,88.3,215.1,89.5z"/>
		<path class="st1" d="M270.9,111.2h-11.6v-4.7l-5.5,4.8c-0.9,0.3-2,0.4-3.1,0.4c-2.6,0-4.7-0.7-6.2-2.2c-1.5-1.5-2.3-3.5-2.3-6.1
			V91.8l-4.5-2.8v-3l10-4.7h3.2v18.1c0,1.7,0.2,2.9,0.7,3.6c0.5,0.7,1.3,1,2.5,1c1.8,0,3.5-0.6,5.2-1.8V91.8l-4.5-2.8v-3l10-4.7h3.2
			V106l4.6,1.6L270.9,111.2z"/>
		<path class="st1" d="M320.6,68.3c2.6,0.5,4.6,1.1,5.8,1.7v11.5h-4.8c-2.6-5.2-6.2-7.9-10.8-7.9c-1.9,0-3.6,0.6-5.1,1.9
			c-1.6,1.3-2.8,3-3.7,5.2c-0.9,2.2-1.3,4.7-1.3,7.4c0,3.1,0.4,6,1.3,8.5c0.9,2.6,2.3,4.6,4.1,6.2c1.8,1.5,4.1,2.3,6.8,2.3
			c3.1,0,7.5-1.8,13.2-5.4l2,3.5l-9.4,7.7c-1.5,0.5-2.9,0.8-4.3,0.9s-2.8,0.2-4.4,0.2c-3.8,0-7.2-0.9-10.1-2.8
			c-3-1.8-5.2-4.4-6.9-7.6c-1.6-3.2-2.4-6.9-2.4-11c0-4.2,1.2-8.1,3.7-11.7c2.4-3.6,5.5-6.4,9.1-8.5c3.6-2.1,7.1-3.1,10.4-3.1
			C315.6,67.5,317.9,67.8,320.6,68.3z"/>
		<path class="st1" d="M361.7,111.2h-11.6v-4.7l-5.8,4.8c-0.7,0.3-1.5,0.4-2.5,0.4c-3.3,0-5.6-0.8-7.1-2.5c-1.4-1.7-2.2-3.7-2.2-6.1
			c0-1.4,0.4-2.8,1.2-4.1c0.8-1.4,2-2.6,3.5-3.8h12.8v-0.9c0-2-0.5-3.4-1.5-4.4c-1-0.9-2.4-1.4-4.1-1.4c-2.4,0-5.5,1-9.3,3l-1.5-3.1
			l7.1-6.1c1.7-0.5,3.8-0.8,6.1-0.8c3.8,0,6.7,0.9,8.8,2.8c2.1,1.8,3.1,4.5,3.1,8v13.5l4.6,1.9L361.7,111.2z M350.1,102.2v-3.5h-8.2
			c-0.3,0.4-0.5,0.8-0.6,1.2c-0.1,0.4-0.2,0.8-0.2,1.3c0,0.9,0.3,1.7,0.9,2.3c0.6,0.6,1.4,0.9,2.4,0.9v0.1
			C346.1,104.4,348,103.7,350.1,102.2z"/>
		<path class="st1" d="M399.6,111.2h-11.6V93.8c0-1.7-0.2-2.9-0.7-3.6c-0.5-0.7-1.3-1.1-2.6-1.1c-1.8,0-3.6,0.6-5.3,1.8v15l4.6,1.6
			l-1.7,3.5h-16.1v-3l4.5-4.1V91.8l-4.5-3v-3l10.6-4.8l2,6.3l6.3-5.4c0.9-0.3,2-0.4,3.1-0.4c2.6,0,4.6,0.7,6.2,2.2
			c1.5,1.5,2.3,3.5,2.3,6.1V106l4.6,1.6L399.6,111.2z"/>
		<path class="st1" d="M407,89.2l-3.2-2.7c1.6-2,2.7-3.6,3.5-5.1c0.7-1.4,1.2-3,1.5-4.6l-4.4-3v-3l10.6-4.7l3.1,9.8L407,89.2z"/>
		<path class="st1" d="M440.1,111.3c-1.2,0.3-2.5,0.4-4.1,0.4c-3.3,0-5.6-0.8-7.2-2.4c-1.5-1.6-2.3-4-2.3-7.3V87.2H421v-2.9
			L432,71.6h3.2v12h9.2v3.6h-9.2v14.5c0,2.5,1.3,3.7,4,3.7c0.7,0,1.3-0.1,2-0.4c0.7-0.2,1.5-0.6,2.5-1.2l1.5,3.1L440.1,111.3z"/>
		<path class="st1" d="M482.5,99.1c-0.8-1-1.8-1.9-3-2.7c-1.2-0.8-2.9-1.8-4.9-3c-2.5-1.5-4.6-2.8-6.1-3.9c-1.6-1.1-2.9-2.4-4-3.9
			c-1.1-1.5-1.6-3.1-1.6-4.9c0-1.8,0.8-3.7,2.3-5.8c1.6-2.1,3.5-3.8,5.7-5.3c2.3-1.4,4.3-2.1,6.2-2.1c2.3,0,4.9,0.3,8,0.8
			c3.1,0.5,5.3,1.1,6.7,1.7v11.9h-4.8c-1.4-2.9-3-5.2-4.7-6.8c-1.7-1.6-3.5-2.4-5.4-2.4c-1.4,0-2.4,0.5-3.2,1.4
			c-0.8,0.9-1.2,2.1-1.2,3.5c0,1.2,0.4,2.2,1.2,3.3c0.8,1,1.9,2,3.1,2.8c1.2,0.8,2.9,1.9,5,3.1c2.5,1.4,4.5,2.7,6,3.8
			c1.5,1.1,2.8,2.3,3.9,3.8c1.1,1.4,1.6,3,1.6,4.8c0,1.8-0.8,3.7-2.5,5.8c-1.7,2.1-3.7,3.8-6.1,5.3c-2.4,1.4-4.6,2.1-6.5,2.1
			c-2.4,0-5.2-0.3-8.5-0.8c-3.3-0.5-5.7-1.1-7.2-1.7V97.9h4.8c1.5,2.9,3.2,5.2,5.2,6.8c2,1.6,4,2.4,6,2.4c1.6,0,2.8-0.5,3.8-1.4
			c1-1,1.4-2.1,1.4-3.5C483.7,101.1,483.3,100.1,482.5,99.1z"/>
		<path class="st1" d="M527.3,111.2h-11.6v-4.7l-5.8,4.8c-0.7,0.3-1.5,0.4-2.5,0.4c-3.3,0-5.6-0.8-7.1-2.5c-1.4-1.7-2.2-3.7-2.2-6.1
			c0-1.4,0.4-2.8,1.2-4.1c0.8-1.4,2-2.6,3.5-3.8h12.8v-0.9c0-2-0.5-3.4-1.5-4.4c-1-0.9-2.4-1.4-4.1-1.4c-2.4,0-5.5,1-9.3,3l-1.5-3.1
			l7.1-6.1c1.7-0.5,3.8-0.8,6.1-0.8c3.8,0,6.7,0.9,8.8,2.8c2.1,1.8,3.1,4.5,3.1,8v13.5l4.6,1.9L527.3,111.2z M515.6,102.2v-3.5h-8.2
			c-0.3,0.4-0.5,0.8-0.6,1.2c-0.1,0.4-0.2,0.8-0.2,1.3c0,0.9,0.3,1.7,0.9,2.3c0.6,0.6,1.4,0.9,2.4,0.9v0.1
			C511.7,104.4,513.6,103.7,515.6,102.2z"/>
		<path class="st1" d="M561.3,85l-13,26.2h-6.4l-7.6-19.6l-4.9-3v-3l11.3-4.6l1.9,8.2l5.6,14.4l6.2-12.8l-7.3-5.3l1.6-3.5h12.7V85z"
			/>
		<path class="st1" d="M589,85.8c2,2.9,2.9,6.9,2.8,12h-18.3c0.3,2.2,1.1,4,2.2,5.3c1.1,1.3,2.6,2,4.4,2c2.4,0,5.8-1.3,10.2-3.8
			l1.5,3.1l-7.7,6.6c-2,0.5-4.3,0.8-7,0.8c-2.5,0-4.7-0.6-6.7-1.9s-3.5-3-4.6-5.1c-1.1-2.2-1.7-4.6-1.7-7.2c0-2.9,0.9-5.5,2.6-8
			c1.7-2.5,3.9-4.4,6.5-5.9c2.6-1.5,5.1-2.2,7.5-2.2C584.3,81.4,587,82.9,589,85.8z M574.6,89.3c-0.7,1.1-1.2,2.7-1.2,4.9h9.7
			c-0.3-2.2-0.8-3.9-1.5-4.9c-0.7-1-2-1.6-3.7-1.6h0.1C576.4,87.7,575.3,88.2,574.6,89.3z"/>
		<path class="st1" d="M656,111.1h-18v-3l4.8-4.3V92h-17.3v13.9l5.7,1.7l-1.6,3.5h-18v-3l4.8-4.3v-30l-5.7-1.7l1.7-3.5h18v3
			l-4.8,4.3v11.9h17.3v-14l-5.7-1.7l1.7-3.5h18v3l-4.8,4.3v30l5.7,1.7L656,111.1z"/>
		<path class="st1" d="M687,85.8c2,2.9,2.9,6.9,2.8,12h-18.3c0.3,2.2,1.1,4,2.2,5.3c1.1,1.3,2.6,2,4.4,2c2.4,0,5.8-1.3,10.2-3.8
			l1.5,3.1l-7.7,6.6c-2,0.5-4.3,0.8-7,0.8c-2.5,0-4.7-0.6-6.7-1.9s-3.5-3-4.6-5.1c-1.1-2.2-1.7-4.6-1.7-7.2c0-2.9,0.9-5.5,2.6-8
			c1.7-2.5,3.9-4.4,6.5-5.9c2.6-1.5,5.1-2.2,7.5-2.2C682.3,81.4,685.1,82.9,687,85.8z M672.6,89.3c-0.7,1.1-1.2,2.7-1.2,4.9h9.7
			c-0.3-2.2-0.8-3.9-1.5-4.9c-0.7-1-2-1.6-3.7-1.6h0.1C674.4,87.7,673.3,88.2,672.6,89.3z"/>
		<path class="st1" d="M708.2,90.8v14.6l7.7,2.2l-1.6,3.5H695v-3l4.5-4.1V91.8l-4.5-3v-3l10.6-4.8l1.9,6l4.6-5.1
			c0.7-0.3,1.5-0.4,2.5-0.4c1.8,0,3.3,0.4,4.6,1.3c1.3,0.9,2.2,2.1,2.7,3.6l-4.9,6.5h-3.2c0-1.3-0.2-2.2-0.5-2.8
			c-0.3-0.6-0.8-0.8-1.4-0.8v-0.1C710.7,89.1,709.4,89.7,708.2,90.8z"/>
	</g>
	<g>
		<path class="st1" d="M356.2,154.9c-0.7,0-1.1-0.1-1.4-0.4c-0.2-0.3-0.3-0.6-0.3-0.9c0-0.4,0.1-1.1,0.3-2.3c0.2-1.2,0.3-2,0.3-2.5
			l0-0.4v-1.5l0-0.7v-2.6c0-3.9,0-6.1-0.1-6.7c-0.1-0.6-0.3-1-0.7-1.3c-0.6-0.5-1-0.9-1-1.1c0-0.4,0.4-0.7,1.1-1
			c1.1-0.3,2-0.5,2.7-0.5h0.3c0.7,0,1.1,0.3,1.3,0.9c0.1,0.4,0.1,1.6,0.1,3.5c0,1.9,0,3,0.1,3.2c0.1,0.4,0.3,0.5,0.7,0.5l0.4-0.1
			c1.1-0.4,2.1-0.6,2.9-0.6c1.7,0,3.1,0.7,4.1,2c1,1.4,1.5,3,1.5,4.9v0.4c0,1-0.2,2-0.6,3c-0.8,1.9-2,3.2-3.6,3.9
			c-0.9,0.4-1.8,0.6-2.6,0.6h-0.3c-0.3,0-0.7-0.1-1.3-0.2c-0.6-0.1-1.2-0.2-1.8-0.2l-0.3,0c-0.3,0-0.5,0-0.6,0l-0.3,0
			C356.5,154.9,356.3,154.9,356.2,154.9z M358.7,150.7c0,0.9,0.2,1.5,0.6,2c0.4,0.5,0.9,0.7,1.6,0.7h0.7c0.7,0,1.4-0.5,2-1.4
			c0.6-0.9,0.8-2.1,0.8-3.5v-1c0-1.5-0.3-2.8-0.9-3.7c-0.6-0.9-1.3-1.4-2.1-1.4h-0.2c-0.9,0-1.6,0.3-1.9,1c-0.4,0.7-0.5,2.1-0.5,4.3
			v0.3l0,0.2v0.7l0,0.2c0,0.1,0,0.2,0,0.3l0.1,1C358.7,150.5,358.7,150.6,358.7,150.7z"/>
		<path class="st1" d="M383.2,140.5c1.3,0,1.9,0.4,1.9,1.1c0,0.3-0.2,0.6-0.6,1.1c-0.4,0.5-0.8,1-1,1.6c-0.3,0.6-1.2,3.1-2.9,7.5
			c-1.7,4.4-2.8,7-3.2,7.8c-0.9,1.5-2,2.2-3.5,2.2c-0.6,0-1.1-0.2-1.6-0.5c-0.5-0.3-0.8-0.7-0.8-1.2s0.2-0.8,0.5-1.2
			c0.3-0.3,0.8-0.5,1.3-0.5c0.9,0,1.6-0.3,2.2-1c0.6-0.6,0.8-1.3,0.8-2c0-0.7-0.2-1.5-0.5-2.3c-2.3-5.6-3.6-8.6-3.7-8.9
			c-0.2-0.3-0.5-0.8-1.1-1.5c-0.6-0.7-0.8-1.2-0.8-1.8c0-0.5,1.3-0.8,4-0.8c0.9,0,1.4,0.1,1.8,0.2c0.3,0.1,0.5,0.4,0.5,0.9
			c0,0.2-0.1,0.4-0.2,0.7c-0.1,0.3-0.2,0.6-0.2,0.8s0.2,1.2,0.7,2.8c0.5,1.6,0.9,2.7,1.2,3.4c0.3,0.7,0.6,1,0.6,1
			c0.3,0,0.9-1.4,1.9-4.3c0.3-0.8,0.4-1.8,0.4-3c0-0.3-0.1-0.5-0.2-0.8c-0.2-0.3-0.2-0.6-0.2-0.8c0-0.2,0.1-0.4,0.3-0.7
			c0.2-0.2,1-0.3,2.2-0.3H383.2z"/>
		<path class="st1" d="M401.2,133.8c2.5,0,4.2,0.2,5.1,0.7c0.7,0.4,1,1.3,1,2.7s-0.2,2.2-0.7,2.2c-0.4,0-1-0.4-1.9-1.3
			c-0.9-0.9-1.5-1.4-2-1.7c-0.4-0.3-1-0.4-1.7-0.4c-0.7,0-1.3,0.2-1.8,0.7c-0.5,0.5-0.8,1.1-0.8,1.8c0,0.9,0.5,1.7,1.4,2.5
			c0.5,0.4,1.6,1,3.3,1.8c1.7,0.8,2.9,1.6,3.7,2.4c1,1.1,1.5,2.4,1.5,3.8c0,2.9-1.4,4.9-4.1,5.9c-0.8,0.3-1.6,0.5-2.5,0.5h-0.5
			c-1,0-2.2-0.1-3.5-0.4c-1.3-0.3-2.1-0.5-2.4-0.7c-0.6-0.5-0.9-1.5-0.9-3.2v-0.5c0-1.1,0.3-1.6,0.8-1.6c0.4,0,1,0.5,1.8,1.5
			c0.8,1,1.5,1.7,2.1,2.1c0.6,0.3,1.3,0.5,2.2,0.5c0.9,0,1.6-0.3,2.2-0.8c0.6-0.5,0.9-1.1,0.9-1.7c0-0.9-0.3-1.7-0.8-2.3
			c-0.5-0.6-1.6-1.3-3.2-2.1c-1.6-0.8-2.7-1.4-3.3-1.9c-1.7-1.3-2.5-2.9-2.5-4.7c0-0.4,0-0.8,0.1-1.2c0.3-1.7,1.4-3,3.1-3.9
			c0.9-0.4,1.8-0.6,2.7-0.6H401.2z"/>
		<path class="st1" d="M424.4,153.6v0.2c0,0.3-0.4,0.7-1.1,1s-1.6,0.4-2.5,0.4c-0.6,0-1.1-0.3-1.5-0.9c-0.2-0.3-0.4-0.5-0.6-0.5
			c-0.1,0-0.4,0.1-0.7,0.3c-1.1,0.8-2.2,1.2-3.5,1.2c0,0,0,0,0,0c-1.2,0-2.2-0.3-3-1c-0.7-0.7-1.1-1.6-1.1-2.8
			c0-2.6,1.9-4.3,5.7-4.9c0.9-0.2,1.5-0.3,1.6-0.3c0.5-0.2,0.8-0.8,0.8-1.6c0-0.8-0.2-1.4-0.5-1.8c-0.4-0.4-0.8-0.6-1.2-0.6
			c-0.7,0-1.4,0.4-2,1.3c-0.6,0.9-1.3,1.3-2.1,1.3c-0.5,0-0.8-0.1-1.1-0.4c-0.2-0.3-0.4-0.6-0.4-0.9c0-0.9,0.4-1.6,1.3-2.1
			c1.4-0.9,3-1.3,4.6-1.3h0.7c0.8,0,1.6,0.2,2.3,0.6c0.7,0.4,1.3,0.9,1.7,1.7c0.4,0.8,0.6,2.4,0.6,5.1c0,2.6,0.1,4.1,0.2,4.5
			c0.2,0.4,0.5,0.7,0.9,0.9C424.2,153.1,424.4,153.4,424.4,153.6z M418.6,148.9c0-0.5-0.1-0.7-0.4-0.7h-0.4
			c-0.2,0.1-0.4,0.1-0.5,0.1c-0.9,0-1.6,0.3-2.2,0.8c-0.6,0.5-0.9,1.1-0.9,1.8v0.3c0,0.5,0.2,1,0.5,1.3c0.3,0.4,0.7,0.6,1.1,0.6h0.5
			c0.6,0,1.2-0.2,1.6-0.6c0.4-0.4,0.7-0.8,0.7-1.2c0-0.2,0.1-0.3,0.1-0.4l0-0.2V150l0-0.2v-0.7C418.6,149,418.6,148.9,418.6,148.9z"
			/>
		<path class="st1" d="M435.8,140.7c0.8,0,1.3,0.2,1.6,0.5c0.3,0.4,0.4,0.8,0.4,1.3c0,0.5-0.1,0.9-0.4,1.3c-0.3,0.4-0.5,0.6-0.9,0.6
			c-0.3,0-0.8-0.1-1.3-0.4c-0.6-0.3-1-0.4-1.3-0.4c-0.3,0-0.6,0.2-1,0.5c-0.4,0.3-0.6,0.8-0.8,1.5c-0.1,0.6-0.2,1.6-0.2,3
			s0.1,2.2,0.3,2.6c0.2,0.4,0.5,0.9,1.1,1.6c0.6,0.6,0.8,1.2,0.8,1.6c0,0.5-1.1,0.7-3.3,0.7h-1.2l-0.3,0c-0.2,0-0.4,0-0.6,0l-0.3,0
			c-0.2,0-0.4,0-0.6,0c-1,0-1.5-0.2-1.5-0.7c0-0.5,0.2-0.9,0.7-1.4c0.5-0.5,0.8-0.9,0.9-1.3c0.1-0.4,0.2-1.6,0.2-3.8
			s-0.1-3.5-0.2-3.9c-0.1-0.4-0.4-0.8-0.9-1.1c-0.5-0.3-0.7-0.6-0.7-1c0-0.5,0.3-0.8,1-1c1-0.3,1.9-0.4,2.7-0.4s1.3,0.1,1.6,0.3
			c0.1,0.1,0.2,0.3,0.4,0.8c0.1,0.4,0.3,0.6,0.5,0.6c0.1,0,0.3-0.1,0.5-0.3C434.1,141.1,435,140.7,435.8,140.7z"/>
		<path class="st1" d="M453.4,153.6v0.2c0,0.3-0.4,0.7-1.1,1c-0.7,0.3-1.6,0.4-2.5,0.4c-0.6,0-1.1-0.3-1.5-0.9
			c-0.2-0.3-0.4-0.5-0.6-0.5c-0.1,0-0.4,0.1-0.7,0.3c-1.1,0.8-2.2,1.2-3.5,1.2c0,0,0,0,0,0c-1.2,0-2.2-0.3-3-1
			c-0.7-0.7-1.1-1.6-1.1-2.8c0-2.6,1.9-4.3,5.7-4.9c0.9-0.2,1.5-0.3,1.6-0.3c0.5-0.2,0.8-0.8,0.8-1.6c0-0.8-0.2-1.4-0.5-1.8
			c-0.4-0.4-0.8-0.6-1.2-0.6c-0.7,0-1.4,0.4-2,1.3c-0.6,0.9-1.3,1.3-2.1,1.3c-0.5,0-0.8-0.1-1.1-0.4c-0.2-0.3-0.4-0.6-0.4-0.9
			c0-0.9,0.4-1.6,1.3-2.1c1.4-0.9,3-1.3,4.6-1.3h0.7c0.8,0,1.6,0.2,2.3,0.6c0.7,0.4,1.3,0.9,1.7,1.7c0.4,0.8,0.6,2.4,0.6,5.1
			c0,2.6,0.1,4.1,0.2,4.5c0.2,0.4,0.5,0.7,0.9,0.9C453.1,153.1,453.4,153.4,453.4,153.6z M447.6,148.9c0-0.5-0.1-0.7-0.4-0.7h-0.4
			c-0.2,0.1-0.4,0.1-0.5,0.1c-0.9,0-1.6,0.3-2.2,0.8c-0.6,0.5-0.9,1.1-0.9,1.8v0.3c0,0.5,0.2,1,0.5,1.3c0.3,0.4,0.7,0.6,1.1,0.6h0.5
			c0.6,0,1.2-0.2,1.6-0.6c0.4-0.4,0.7-0.8,0.7-1.2c0-0.2,0.1-0.3,0.1-0.4l0-0.2V150l0-0.2v-0.7C447.6,149,447.6,148.9,447.6,148.9z"
			/>
		<path class="st1" d="M471.3,154.1c0,0.5-0.3,0.8-1,0.9c-0.6,0.1-1.5,0.2-2.7,0.2c-1.2,0-1.9-0.1-2.3-0.2c-0.4-0.2-0.5-0.4-0.5-0.8
			c0-0.2,0.1-0.5,0.4-1c0.2-0.5,0.4-0.9,0.5-1.2c0.1-0.3,0.1-1.6,0.1-3.7c0-2.1-0.2-3.5-0.5-4.3c-0.3-0.7-1-1.1-1.9-1.1
			c-0.9,0-1.6,0.3-2.1,1c-0.5,0.7-0.7,1.9-0.7,3.6c0,0.6,0.1,1.5,0.2,2.7c0.1,1.2,0.3,2.1,0.6,2.7c0.2,0.6,0.4,1,0.4,1
			c0,0.5-0.3,0.7-0.8,0.9c-0.7,0.2-1.9,0.3-3.4,0.3c-1.5,0-2.3-0.2-2.3-0.7c0-0.4,0.2-0.9,0.7-1.5c0.4-0.7,0.7-1.2,0.8-1.7
			c0.1-0.5,0.1-2.9,0.1-7.2c0-4.3-0.1-6.8-0.2-7.3c-0.1-0.5-0.3-0.9-0.6-1.2c-0.7-0.6-1-1-1-1.1c0-0.4,0.2-0.7,0.6-0.9
			c0.9-0.4,2-0.6,3.5-0.6c0.7,0,1.1,0.3,1.3,0.8c0.1,0.3,0.2,1.6,0.2,3.9s0,3.4,0.1,3.6c0.1,0.4,0.3,0.5,0.6,0.5
			c0.1,0,0.4-0.1,0.8-0.3c1.2-0.6,2.2-0.8,3.1-0.8c1.7,0,2.9,0.7,3.6,2.2c0.5,1,0.8,2.8,0.8,5.3c0,2.5,0.1,3.9,0.2,4.3
			s0.4,0.7,0.8,1.1C471.1,153.7,471.3,153.9,471.3,154.1z"/>
		<path class="st1" d="M501.9,134.4c1.4,0,2.3,0.1,2.7,0.3l0.4,0.4c0,0.4-0.2,0.8-0.6,1.3c-0.4,0.5-0.6,0.8-0.7,1
			c-0.2,0.6-0.3,1.4-0.3,2.4c0,1,0,1.9,0,2.6l0.1,2.7c0,1.2,0.1,2.5,0.1,4c0,1.5,0.1,2.4,0.2,2.8c0.1,0.4,0.4,0.7,0.7,1.1l0.8,0.8
			c0,0.6-0.6,0.9-1.7,0.9c-1.6,0-2.8-0.1-3.7-0.3c-0.7-0.2-1-0.5-1-1l0.1-0.4c0.3-1.2,0.5-2.1,0.5-2.6c0-0.6-0.1-1.7-0.2-3.3
			c-0.1-1.6-0.2-3.1-0.2-4.4c0-1.3,0-1.9-0.1-1.9c-0.2,0-1,1.7-2.1,5c-1.2,3.4-2,5.5-2.5,6.5c-0.7,1.4-1.3,2.1-2,2.1
			c-0.6,0-1.2-0.4-1.5-1.3l-0.3-0.8c-0.1-0.3-0.4-1.1-0.9-2.6l-1.3-3.4c-1.3-3.6-2.2-5.4-2.4-5.4s-0.4,1.4-0.4,4.2
			c0,1.3,0,2.4,0.1,3.4l0.1,1.6c0,0.5,0.1,1,0.1,1.5l0.1,0.7l0.1,0.6c0,0.3,0,0.7,0,1.2l-0.2,0.3c-0.4,0.3-1,0.5-1.8,0.5
			c-1.8,0-2.7-0.2-2.7-0.7c0-0.2,0.2-0.6,0.5-1.1c0.4-0.5,0.6-1,0.8-1.5c0.1-0.5,0.2-1.5,0.2-3.1l0-0.9l0.1-0.9
			c0.1-2.8,0.2-4.7,0.2-5.6s-0.1-1.7-0.2-2.2c-0.1-0.6-0.4-1.2-0.8-1.9c-0.4-0.7-0.6-1.3-0.6-1.6l0.3-0.4c0.4-0.3,0.8-0.5,1.2-0.5
			h0.8c0.9,0,1.8,0.2,2.6,0.6c0.8,0.4,1.4,0.9,1.8,1.5l0.4,0.7c0.3,0.6,0.6,1.4,1,2.3c0.3,0.9,0.8,2.1,1.4,3.7
			c0.6,1.5,1.2,2.7,1.6,3.5l0.4,0.5c0.3,0,1.2-1.8,2.7-5.3c1.6-3.6,2.5-5.5,2.8-5.9C499.4,134.8,500.4,134.4,501.9,134.4z"/>
		<path class="st1" d="M521.7,153.6v0.2c0,0.3-0.4,0.7-1.1,1c-0.7,0.3-1.6,0.4-2.5,0.4c-0.6,0-1.1-0.3-1.5-0.9
			c-0.2-0.3-0.4-0.5-0.6-0.5c-0.1,0-0.4,0.1-0.7,0.3c-1.1,0.8-2.2,1.2-3.5,1.2c0,0,0,0,0,0c-1.2,0-2.2-0.3-3-1
			c-0.7-0.7-1.1-1.6-1.1-2.8c0-2.6,1.9-4.3,5.7-4.9c0.9-0.2,1.5-0.3,1.6-0.3c0.5-0.2,0.8-0.8,0.8-1.6c0-0.8-0.2-1.4-0.5-1.8
			c-0.4-0.4-0.8-0.6-1.2-0.6c-0.7,0-1.4,0.4-2,1.3c-0.6,0.9-1.3,1.3-2.1,1.3c-0.5,0-0.8-0.1-1.1-0.4c-0.2-0.3-0.4-0.6-0.4-0.9
			c0-0.9,0.4-1.6,1.3-2.1c1.4-0.9,3-1.3,4.6-1.3h0.7c0.8,0,1.6,0.2,2.3,0.6c0.7,0.4,1.3,0.9,1.7,1.7c0.4,0.8,0.6,2.4,0.6,5.1
			c0,2.6,0.1,4.1,0.2,4.5c0.2,0.4,0.5,0.7,0.9,0.9C521.5,153.1,521.7,153.4,521.7,153.6z M516,148.9c0-0.5-0.1-0.7-0.4-0.7h-0.4
			c-0.2,0.1-0.4,0.1-0.5,0.1c-0.9,0-1.6,0.3-2.2,0.8c-0.6,0.5-0.9,1.1-0.9,1.8v0.3c0,0.5,0.2,1,0.5,1.3c0.3,0.4,0.7,0.6,1.1,0.6h0.5
			c0.6,0,1.2-0.2,1.6-0.6c0.4-0.4,0.7-0.8,0.7-1.2c0-0.2,0.1-0.3,0.1-0.4l0-0.2V150l0-0.2v-0.7C516,149,516,148.9,516,148.9z"/>
		<path class="st1" d="M535.8,140.5c1.9,0,2.8,0.3,2.8,0.9c0,0.3-0.6,0.9-1.8,1.6c-2.4,1.5-3.5,2.8-3.5,3.7c0,0.3,1,1.7,2.9,4
			c0.7,0.8,1.4,1.5,2.2,2.2c0.8,0.6,1.2,1.1,1.2,1.4c0,0.3-0.1,0.4-0.3,0.6c-0.2,0.1-1.1,0.2-2.5,0.2h-0.6c-1.4,0-2.4-0.2-2.8-0.7
			c-0.3-0.3-0.5-0.8-0.6-1.5c-0.1-0.7-0.3-1.3-0.6-1.8c-0.7-1.2-1.3-1.7-2-1.7c-0.4,0-0.6,0.5-0.6,1.5c0,1,0.2,1.9,0.6,2.7
			c0.2,0.4,0.3,0.6,0.3,0.6c0,0.4-0.3,0.7-0.9,0.9c-0.3,0.1-1.1,0.1-2.3,0.1c-1.2,0-2-0.1-2.3-0.2c-0.5-0.2-0.8-0.4-0.8-0.8
			c0-0.2,0.2-0.6,0.5-1.3c0.4-0.6,0.6-1.1,0.6-1.5c0.1-0.9,0.2-3.6,0.2-8.1c0-4.6-0.1-7-0.2-7.3c-0.1-0.3-0.4-0.6-1-0.9
			c-0.6-0.3-0.8-0.7-0.8-1s0.3-0.7,0.8-0.9c1-0.4,2-0.6,3.2-0.6h0.5c0.6,0,1,0.4,1.1,1.1c0.1,0.5,0.2,2.5,0.2,5.9c0,3.4,0,5.3,0,5.5
			c0.1,0.7,0.3,1.1,0.6,1.1c0.4,0,1.2-0.6,2.2-1.8c0.6-0.8,1-1.4,1-1.9l-0.2-0.9c0-0.3,0.2-0.6,0.6-0.7
			C533.8,140.6,534.6,140.5,535.8,140.5z"/>
	</g>
</g>
</svg>
