<?xml version="1.0" encoding="UTF-8"?>
<svg id="Layer_1" data-name="Layer 1" xmlns="http://www.w3.org/2000/svg" version="1.1" viewBox="0 0 188.6 234.6">
  <defs>
    <style>
      .cls-1 {
        fill: #000;
        stroke-width: 0px;
      }
    </style>
  </defs>
  <path class="cls-1" d="M186,92.1c-1.8-3.6-3.3-6.3-4.6-8.5l-38.3-61.8c-2.7-4.3-5.8-7.9-9.4-10.7-3.9-3-7.8-5.2-11.9-6.6-4.9-1.7-9.2-2.8-13.4-3.3-4.4-.7-9.2-1-14.2-1s-8.5.3-13.8,1c-4.7.6-9.2,1.7-13.7,3.3-4.4,1.6-8.4,3.9-12,6.6-3.8,2.9-7,6.5-9.5,10.7L7.3,83.6c-.5.9-1.1,1.8-1.7,3l-.6.9c-1,1.6-1.8,3.1-2.4,4.6-.7,1.6-1.3,3.2-1.8,4.8-.6,1.8-.8,3.2-.8,4.5,0,7.3,1,14.6,3.2,22.2,2.1,7.2,4.6,14.3,7.4,21.1l18,41.3c-1.4,3.7-2.2,7.8-2.2,12.3,0,8,1.5,15,4.6,21.2,3.2,6.3,8.5,11.3,15.8,14.9h.1c0,0,4.1-2,4.1-2l-.9-4.4h0c-3.7-3.7-6.9-7.8-9.8-12.3-2.9-4.5-4.4-9.3-4.4-14.8s.7-6.1,2.1-8.7c9.7,3.3,14.6,10.3,14.6,20.8h0c0,.1,5,3.2,5,3.2h0c.8,0,1.4-.5,1.5-1.3,0-.7.2-1.4.2-1.9,0-5.7-1.6-11.1-4.8-16.5-3.1-5.2-6.8-9.8-10.8-13.6-1.5-1.5-2.8-3.6-3.9-6.2-1.2-2.8-2.3-5.8-3.3-9-1-3.1-1.9-6.4-2.6-9.3-.5-1.7-.8-3.3-1.1-4.6-.2-1.1-.5-2-.7-2.8-1.7-7.3-3.5-14.7-5-20.4-1.8-6.9-4.3-13.5-7.5-19.8,0-4.2,1.1-8.6,3.3-13.2,2.4-4.9,5.2-9.8,8.5-14.7,3.9-5.6,7.6-10.7,11.5-15.5h0c4.1-5.2,8.3-10.4,12.4-15.4,4.1-5,8-10,11.7-14.7,3.6-4.6,6.5-9,8.7-13h36.7c2.1,4.2,4.9,8.6,8.6,13.4,4,5.3,7.8,10,11.6,14.5,2.4,2.8,4.8,5.8,7.1,8.7,1.8,2.2,3.6,4.5,5.4,6.7,3.9,4.8,7.8,9.9,11.6,15.3,3.4,4.9,6.2,9.8,8.5,14.7,2.2,4.6,3.3,9.1,3.3,13.3-3.1,6.3-5.6,13-7.4,19.8-.5,1.8-.9,3.6-1.4,5.4-1.3,5.2-2.6,10.1-3.8,15-.3,1.7-.8,4-1.4,6.6l-.2.8c-.6,2.6-1.4,5.6-2.6,9.3-1,3.2-2.1,6.2-3.3,9-1,2.6-2.3,4.7-3.8,6.2-3.8,3.7-7.2,8.1-10.6,13.6-3.2,5.2-4.8,10.8-4.8,16.5s0,.8.1,1.6c0,.5.2,1.4,1,1.4s2-.4,3-1c.9-.6,1.7-1.3,2.2-1.9h0v-.2c0-10.6,4.8-17.4,14.6-20.8,1.4,2.8,2.2,5.7,2.2,8.7,0,5.5-1.5,10.4-4.4,14.8-3.2,4.8-6.5,8.9-9.9,12.3h0c0,0-.7,4.4-.7,4.4l4,2h.1c7.4-3.7,12.7-8.7,15.8-15,3.1-6.3,4.7-13.4,4.7-21.3s-.7-8.1-2.2-12.1l17.8-41.4c2.8-6.6,5.3-13.5,7.6-21.2,2.2-7.2,3.3-14.6,3.3-22.1s-.9-6.1-2.5-9.3Z"/>
</svg>