<?xml version="1.0" encoding="utf-8"?>
<!-- Generator: Adobe Illustrator 28.2.0, SVG Export Plug-In . SVG Version: 6.00 Build 0)  -->
<svg version="1.1" id="embrace-bold" xmlns="http://www.w3.org/2000/svg" xmlns:xlink="http://www.w3.org/1999/xlink" x="0px" y="0px"
	 viewBox="0 0 191 237" style="enable-background:new 0 0 191 237;" xml:space="preserve">
<path d="M188.3,92.6c-1.9-3.6-3.3-6.3-4.7-8.6l-38.3-61.8c-2.8-4.5-6-8.2-9.7-11c-4-3.1-8-5.4-12.2-6.8c-5-1.7-9.4-2.8-13.7-3.4
	c-4.4-0.7-9.3-1-14.4-1c-4.1,0-8.6,0.3-14,1c-4.8,0.6-9.4,1.7-13.9,3.4c-4.5,1.7-8.6,4-12.3,6.8c-3.9,3-7.2,6.7-9.8,11L7.5,84.1
	c-0.5,0.8-1,1.8-1.7,2.9l-0.5,0.9c-1,1.7-1.8,3.2-2.5,4.8c-0.7,1.6-1.3,3.2-1.8,4.9c-0.6,1.9-0.9,3.4-0.9,4.8
	c0,7.4,1.1,14.8,3.3,22.5c2.1,7.3,4.6,14.4,7.5,21.3l17.8,40.8c-1.4,3.7-2.1,7.8-2.1,12.3c0,8.2,1.6,15.4,4.8,21.8
	c3.3,6.6,8.8,11.8,16.4,15.5l0,0l2.8-0.7c2-1,3.1-3.2,2.6-5.3l-0.4-2l-0.3-0.3c-3.6-3.6-6.8-7.6-9.6-12.1c-2.8-4.3-4.2-8.9-4.2-14.1
	c0-2.6,0.5-4.9,1.5-7.1c8.6,3.2,12.7,9.6,12.7,19.2v0.8l5.9,3.7H59c1.4,0,2.6-1,2.8-2.4c0.1-0.8,0.2-1.5,0.2-2.1
	c0-6-1.6-11.6-5-17.2c-3.2-5.3-6.9-10-11-13.9c-1.4-1.4-2.6-3.4-3.7-5.8c-1.2-2.7-2.3-5.7-3.3-8.9c-1-3.1-1.9-6.3-2.6-9.2
	c-0.4-1.7-0.8-3.2-1.1-4.6c-0.2-1-0.5-2-0.7-2.8c-1.7-7.3-3.5-14.8-5-20.4c-1.8-6.9-4.3-13.5-7.4-19.8c0.1-3.9,1.1-8.1,3.1-12.4
	c2.4-4.8,5.2-9.7,8.4-14.5c3.9-5.6,7.6-10.7,11.4-15.4l0.2-0.2c4.1-5,8.3-10.2,12.3-15.2c4.1-5.1,8-10,11.7-14.7
	c3.5-4.4,6.3-8.6,8.4-12.5H113c2.1,4,4.9,8.3,8.3,12.9c4.1,5.3,7.9,10.1,11.6,14.6c2.4,2.8,4.8,5.8,7.1,8.7c1.8,2.2,3.6,4.5,5.4,6.7
	c3.9,4.7,7.8,9.9,11.5,15.2c3.3,4.9,6.2,9.7,8.4,14.5c2,4.4,3.1,8.6,3.2,12.5c-3.1,6.3-5.6,13-7.4,19.8c-0.5,1.8-0.9,3.6-1.4,5.4
	c-1.3,5.2-2.6,10.1-3.8,15l0,0.1c-0.3,1.7-0.8,3.9-1.4,6.5l-0.2,0.8c-0.6,2.6-1.4,5.5-2.6,9.2c-1,3.1-2.1,6.1-3.3,8.9
	c-1.2,3-2.6,4.8-3.5,5.8c-3.8,3.7-7.4,8.3-10.8,13.9c-3.3,5.4-5,11.2-5,17.2c0,0.2,0,0.9,0.1,1.8c0.3,2.2,1.6,2.5,2.3,2.5
	c1.2,0,2.5-0.4,3.7-1.3c1-0.7,1.8-1.5,2.4-2.1l0.4-0.4v-0.6c0-9.6,4.2-15.9,12.8-19.2c1,2.3,1.5,4.7,1.5,7.1c0,5.2-1.4,9.9-4.1,14.1
	c-3.1,4.7-6.4,8.8-9.7,12.1l-0.3,0.3l-0.4,2.1c-0.4,2.1,0.7,4.2,2.6,5.2l2.8,0.8l0,0c7.6-3.8,13.1-9,16.4-15.5
	c3.2-6.4,4.9-13.8,4.9-21.9c0-4-0.7-8.1-2.1-12.1l17.6-41c2.8-6.6,5.3-13.6,7.7-21.3c2.2-7.3,3.4-14.9,3.4-22.4
	C191,99.4,190.1,96,188.3,92.6z"/>
</svg>
