<?xml version="1.0" encoding="utf-8"?>
<!-- Generator: Adobe Illustrator 26.0.2, SVG Export Plug-In . SVG Version: 6.00 Build 0)  -->
<svg version="1.1" id="Layer_1" xmlns="http://www.w3.org/2000/svg" xmlns:xlink="http://www.w3.org/1999/xlink" x="0px" y="0px"
	 viewBox="0 0 189.5 234.3" style="enable-background:new 0 0 189.5 234.3;" xml:space="preserve">
<g>
	<path d="M47.6,234.1c-7.4-3.6-12.6-8.6-15.7-14.8c-3.1-6.2-4.6-13.2-4.6-21.1c0-4.4,0.7-8.5,2.2-12.3l-18-41.4
		c-2.8-6.7-5.3-13.8-7.4-21.1c-2.1-7.4-3.2-14.7-3.2-22.1c0-1.4,0.3-2.8,0.8-4.4s1.1-3.1,1.8-4.8C4.2,90.5,5,89,5.9,87.5
		c0.9-1.5,1.7-2.8,2.3-3.9l37.9-61.8c2.6-4.3,5.8-7.8,9.4-10.6c3.6-2.8,7.6-5,11.9-6.6C71.8,3,76.3,1.9,81,1.3c4.7-0.6,9.3-1,13.8-1
		c4.8,0,9.6,0.3,14.2,1c4.7,0.6,9.1,1.8,13.4,3.3s8.2,3.8,11.8,6.6s6.7,6.4,9.3,10.6l38.3,61.8c1.4,2.4,2.9,5.2,4.6,8.5
		c1.7,3.3,2.5,6.4,2.5,9.2c0,7.5-1.1,14.8-3.3,22c-2.2,7.2-4.7,14.3-7.6,21.2L160.2,186c1.4,3.8,2.2,7.9,2.2,12.1
		c0,7.9-1.6,15-4.7,21.2c-3.1,6.2-8.4,11.2-15.7,14.8l-3.7-1.9l0.7-4.1c3.6-3.6,6.9-7.8,9.9-12.3s4.4-9.6,4.4-14.9
		c0-3.2-0.8-6.2-2.3-9c-10,3.4-15,10.4-15,21.1c-0.6,0.6-1.3,1.3-2.2,1.9c-0.9,0.6-1.9,1-2.9,1c-0.5,0-0.7-0.4-0.8-1.2
		c-0.1-0.8-0.1-1.4-0.1-1.6c0-5.7,1.6-11.2,4.8-16.4c3.2-5.2,6.7-9.8,10.6-13.6c1.4-1.4,2.8-3.5,3.9-6.3c1.2-2.8,2.3-5.8,3.3-9
		c1-3.2,1.9-6.3,2.6-9.3c0.7-3,1.3-5.5,1.6-7.4c1.6-6.6,3.4-13.4,5.2-20.4c1.8-7,4.3-13.6,7.4-19.8c0-4.3-1.1-8.8-3.3-13.5
		c-2.2-4.7-5-9.6-8.5-14.7c-3.5-5-7.4-10.2-11.6-15.3S137.7,57,133.5,52c-4.2-5-8-9.8-11.6-14.5c-3.5-4.7-6.4-9.2-8.6-13.5H76.3
		c-2.1,4-5,8.4-8.7,13.1c-3.7,4.7-7.6,9.6-11.7,14.7c-4.1,5-8.3,10.2-12.5,15.4c-4.2,5.2-8,10.4-11.5,15.5c-3.4,5.1-6.2,10-8.5,14.7
		c-2.2,4.7-3.3,9.2-3.3,13.4c3.2,6.3,5.7,12.9,7.5,19.8c1.8,7,3.5,13.8,5,20.4c0.5,1.9,1,4.4,1.8,7.4c0.7,3,1.6,6.2,2.6,9.3
		c1,3.2,2.1,6.2,3.3,9s2.6,4.9,4,6.3c4,3.8,7.6,8.3,10.8,13.6s4.8,10.7,4.8,16.4c0,0.5-0.1,1.2-0.2,1.9c-0.1,0.7-0.6,1.1-1.3,1.1
		l-4.8-3c0-10.7-5-17.8-15-21.1c-1.5,2.8-2.2,5.8-2.2,9c0,5.4,1.4,10.3,4.4,14.9c2.9,4.6,6.2,8.7,9.8,12.3l0.8,4.1L47.6,234.1z"/>
</g>
</svg>
