<?xml version="1.0" encoding="utf-8"?>
<!-- Generator: Adobe Illustrator 28.2.0, SVG Export Plug-In . SVG Version: 6.00 Build 0)  -->
<svg version="1.1" id="Layer_1" xmlns="http://www.w3.org/2000/svg" xmlns:xlink="http://www.w3.org/1999/xlink" x="0px" y="0px"
	 viewBox="0 0 189.5 189.4" style="enable-background:new 0 0 189.5 189.4;" xml:space="preserve">
<g>
	<path d="M11.7,0c1.2,1,1.9,2.3,2.2,3.8c0.3,1.5,0.4,3,0.4,4.4c0,2.1-0.2,4.3-0.7,6.5c-0.5,2.2-1,4.4-1.5,6.6
		c-0.6,2.2-1.1,4.4-1.5,6.5c-0.5,2.1-0.7,4.3-0.7,6.5c0,4.4,0.4,8.8,1.2,13.2c0.8,4.4,1.9,8.7,3.3,13.1c2.5,0,4.6-0.6,6.2-1.8
		c1.6-1.2,2.9-2.7,3.8-4.6c0.9-1.9,1.5-3.9,1.7-6.1s0.4-4.4,0.4-6.4c0-3.1-0.2-6.1-0.6-9.2c-0.4-3.1-1.1-6-2.2-8.9
		c0.6-0.6,1.2-1.4,1.9-2.2c0.7-0.8,1.5-1.3,2.6-1.3c1.8,0,3.1,1.2,4,3.6c0.9,2.4,1.5,5.2,1.9,8.3c0.4,3.1,0.6,6.2,0.7,9.1
		c0,2.9,0.1,4.8,0.1,5.8c0,5.1-1,9.8-2.8,14c-1.9,4.3-4.7,8.2-8.3,11.7c-0.9,7.7-1.4,15.4-1.4,23.1c0,0.6,0,3.2,0.1,7.7
		c0,4.5,0.1,11,0.1,19.4c0,7.6,0.2,15.1,0.5,22.5c0.3,7.4,0.6,14.9,0.8,22.5c1.9,0,3.6,0.1,5.2,0.3c1.6,0.2,3.3,0.4,5.1,0.6
		c3.7,0.2,8.3,0.4,13.7,0.7c5.4,0.3,11,0.7,16.7,1.3c5.7,0.6,11.3,1.3,16.6,2.3c5.3,1,9.8,2.3,13.5,4.1c4.8-2.3,10.3-3.9,16.5-4.8
		c6.2-0.9,12.5-1.5,19-1.9c6.5-0.4,12.9-0.7,19.2-1c6.3-0.3,11.9-0.8,16.9-1.5c0-11.1,0.1-22.2,0.4-33.3l0.3-9.4
		c0.3-11.1,0.4-22.2,0.4-33.3c0-6.5-0.4-12.8-1.1-19c-3.6-3.5-6.4-7.4-8.3-11.7c-1.9-4.3-2.8-8.9-2.8-14c0-0.9,0-2.8,0.1-5.8
		s0.3-6,0.7-9.1c0.4-3.1,1.1-5.9,1.9-8.3c0.9-2.4,2.2-3.6,4-3.6c1,0,1.9,0.4,2.6,1.3c0.7,0.8,1.3,1.6,1.9,2.2
		c-1,2.9-1.7,5.8-2.2,8.9c-0.4,3.1-0.6,6.1-0.6,9.2c0,2,0.1,4.2,0.4,6.4s0.9,4.3,1.7,6.1c0.9,1.9,2.1,3.4,3.6,4.6
		c1.5,1.2,3.6,1.8,6.3,1.8c1.4-4.2,2.5-8.5,3.3-12.9c0.8-4.4,1.2-8.8,1.2-13.3c0-2.3-0.2-4.5-0.7-6.7c-0.2-1.1-0.4-2.2-0.7-3.2
		l-1.7-6.5c-0.2-1.1-0.4-2.2-0.7-3.2c-0.5-2.1-0.7-4.4-0.7-6.7c0-1.4,0.2-2.8,0.6-4.3c0.4-1.5,1.1-2.8,2.1-3.9l3.5,2.1
		c2.4,5.7,4.4,11.6,5.8,17.4c1.5,5.9,2.2,11.9,2.2,18c0,6.6-0.8,13.1-2.3,19.5c-1.5,6.4-3.5,12.7-5.8,18.7c1.1,11.9,2.1,23.9,3,35.8
		c0.9,11.9,1.3,23.9,1.3,35.7c0,3.2-0.1,7.3-0.4,12.1c-0.3,4.8-1.1,9.4-2.4,13.9c-1.3,4.4-3.3,8.2-6,11.4c-2.7,3.1-6.3,4.7-11,4.7
		H23.6c-4.7,0-8.4-1.6-11-4.7c-2.6-3.1-4.6-6.9-5.9-11.4c-1.3-4.4-2.1-9.1-2.4-13.9c-0.3-4.8-0.5-8.8-0.5-12.1
		c0-11.9,0.5-23.8,1.4-35.7c0.9-11.9,1.9-23.9,3.1-35.8c-2.3-6-4.3-12.2-5.8-18.7C0.8,50.6,0,44.1,0,37.5c0-6.1,0.7-12.2,2.2-18.1
		c1.5-6,3.5-11.7,6-17.3L11.7,0z"/>
</g>
</svg>
